<svg width="90" height="90" viewBox="0 0 90 90" fill="none" xmlns="http://www.w3.org/2000/svg">
<path d="M83.5509 54.2616L75.1134 45.8241C74.586 45.2968 73.8708 45.0006 73.125 45.0006C72.3792 45.0006 71.664 45.2968 71.1366 45.8241L45 71.9606V84.375H57.4144L83.5509 58.2384C84.0782 57.711 84.3744 56.9958 84.3744 56.25C84.3744 55.5042 84.0782 54.789 83.5509 54.2616ZM55.0856 78.75H50.625V74.2894L64.6875 60.2269L69.1481 64.6875L55.0856 78.75ZM73.125 60.7106L68.6644 56.25L73.125 51.7894L77.5856 56.25L73.125 60.7106ZM56.25 36.5625V30.9375H50.2256C49.9616 29.9315 49.5593 28.967 49.0303 28.0716L53.2969 23.805L49.32 19.8281L45.0534 24.0947C44.158 23.5657 43.1935 23.1634 42.1875 22.8994V16.875H36.5625V22.8994C35.5565 23.1634 34.592 23.5657 33.6966 24.0947L29.43 19.8281L25.4531 23.805L29.7197 28.0716C29.1907 28.967 28.7884 29.9315 28.5244 30.9375H22.5V36.5625H28.5244C28.7884 37.5685 29.1907 38.533 29.7197 39.4284L25.4531 43.695L29.43 47.6719L33.6966 43.4053C34.592 43.9343 35.5565 44.3366 36.5625 44.6006V50.625H42.1875V44.6006C43.1935 44.3366 44.158 43.9343 45.0534 43.4053L49.32 47.6719L53.2969 43.695L49.0303 39.4284C49.5593 38.533 49.9616 37.5685 50.2256 36.5625H56.25ZM39.375 39.375C38.2625 39.375 37.1749 39.0451 36.2499 38.427C35.3249 37.8089 34.6039 36.9304 34.1782 35.9026C33.7524 34.8748 33.641 33.7438 33.8581 32.6526C34.0751 31.5615 34.6109 30.5592 35.3975 29.7725C36.1842 28.9859 37.1865 28.4501 38.2776 28.2331C39.3688 28.016 40.4998 28.1274 41.5276 28.5532C42.5554 28.9789 43.4339 29.6999 44.052 30.6249C44.6701 31.5499 45 32.6375 45 33.75C44.9978 35.2412 44.4044 36.6706 43.35 37.725C42.2956 38.7794 40.8662 39.3728 39.375 39.375Z" fill="#508BC8"/>
<path d="M33.75 84.375H16.875C15.3832 84.375 13.9524 83.7824 12.8975 82.7275C11.8426 81.6726 11.25 80.2418 11.25 78.75V11.25C11.25 9.75816 11.8426 8.32742 12.8975 7.27252C13.9524 6.21763 15.3832 5.625 16.875 5.625H61.875C63.3668 5.625 64.7976 6.21763 65.8525 7.27252C66.9074 8.32742 67.5 9.75816 67.5 11.25V39.375H61.875V11.25H16.875V78.75H33.75V84.375Z" fill="#508BC8"/>
</svg>
