<svg width="90" height="90" viewBox="0 0 90 90" fill="none" xmlns="http://www.w3.org/2000/svg">
<path d="M79.7438 18.8691H67.3313C66.6003 18.8691 65.8992 19.1595 65.3823 19.6764C64.8654 20.1933 64.575 20.8944 64.575 21.6254V54.0891C64.1475 54.374 63.7504 54.7019 63.39 55.0679C62.3971 56.1384 61.4952 57.2899 60.6938 58.5104C60.375 59.0054 60.1238 59.4441 59.8988 59.8341C59.531 60.6861 58.9223 61.4121 58.1475 61.9229C57.4718 62.2658 56.7403 62.4855 55.9875 62.5716C55.4641 62.6524 54.9337 62.6776 54.405 62.6466V38.8041C54.405 38.4312 54.2568 38.0735 53.9931 37.8098C53.7294 37.546 53.3717 37.3979 52.9988 37.3979H8.90625C8.53329 37.3979 8.1756 37.546 7.91188 37.8098C7.64816 38.0735 7.5 38.4312 7.5 38.8041V66.9291C7.5 67.3021 7.64816 67.6598 7.91188 67.9235C8.1756 68.1872 8.53329 68.3354 8.90625 68.3354H11.37C11.743 68.3354 12.1006 68.4835 12.3644 68.7473C12.6281 69.011 12.7763 69.3687 12.7763 69.7416C12.7762 69.9261 12.8127 70.1088 12.8834 70.2792C12.9541 70.4496 13.0577 70.6044 13.1884 70.7347C13.319 70.865 13.474 70.9682 13.6446 71.0385C13.8152 71.1087 13.998 71.1446 14.1825 71.1441H22.5C22.6845 71.1446 22.8673 71.1087 23.0379 71.0385C23.2085 70.9682 23.3635 70.865 23.4941 70.7347C23.6248 70.6044 23.7284 70.4496 23.7991 70.2792C23.8699 70.1088 23.9063 69.9261 23.9063 69.7416C23.9063 69.3687 24.0544 69.011 24.3181 68.7473C24.5819 68.4835 24.9395 68.3354 25.3125 68.3354H36.5625C36.9355 68.3354 37.2931 68.4835 37.5569 68.7473C37.8206 69.011 37.9688 69.3687 37.9688 69.7416C37.9688 69.9261 38.0052 70.1088 38.0759 70.2792C38.1466 70.4496 38.2502 70.6044 38.3809 70.7347C38.5115 70.865 38.6665 70.9682 38.8371 71.0385C39.0077 71.1087 39.1905 71.1446 39.375 71.1441H47.7038C47.8882 71.1446 48.071 71.1087 48.2416 71.0385C48.4122 70.9682 48.5673 70.865 48.6979 70.7347C48.8285 70.6044 48.9322 70.4496 49.0029 70.2792C49.0736 70.1088 49.11 69.9261 49.11 69.7416C49.1095 69.5571 49.1454 69.3744 49.2157 69.2038C49.2859 69.0332 49.3892 68.8781 49.5195 68.7475C49.6497 68.6169 49.8045 68.5132 49.9749 68.4425C50.1453 68.3718 50.328 68.3354 50.5125 68.3354H52.98C53.2765 68.3336 53.5647 68.2369 53.8023 68.0594C54.0398 67.8819 54.2143 67.633 54.3 67.3491C54.6733 67.3967 55.0488 67.4255 55.425 67.4354C55.9169 67.4301 56.408 67.3925 56.895 67.3229C57.7934 67.2152 58.665 66.9459 59.4675 66.5279C60.436 65.9184 61.2031 65.0365 61.6725 63.9929C61.885 63.6179 62.135 63.1929 62.4225 62.7179C63.0704 61.7387 63.7832 60.8041 64.5563 59.9204V68.3879C64.5563 69.1189 64.8466 69.82 65.3635 70.3369C65.8804 70.8538 66.5815 71.1441 67.3125 71.1441H79.725C80.0898 71.1466 80.4515 71.0767 80.789 70.9383C81.1266 70.8 81.4333 70.596 81.6914 70.3382C81.9496 70.0805 82.154 69.774 82.2928 69.4366C82.4316 69.0993 82.502 68.7377 82.5 68.3729V21.6254C82.5 20.8944 82.2096 20.1933 81.6927 19.6764C81.1758 19.1595 80.4748 18.8691 79.7438 18.8691ZM32.7113 39.9291C32.7113 39.5562 32.8594 39.1985 33.1231 38.9348C33.3869 38.671 33.7445 38.5229 34.1175 38.5229H51.825C52.198 38.5229 52.5556 38.671 52.8194 38.9348C53.0831 39.1985 53.2313 39.5562 53.2313 39.9291V63.5541C53.2313 63.9271 53.0831 64.2848 52.8194 64.5485C52.5556 64.8122 52.198 64.9604 51.825 64.9604H34.125C33.752 64.9604 33.3944 64.8122 33.1306 64.5485C32.8669 64.2848 32.7188 63.9271 32.7188 63.5541L32.7113 39.9291ZM20.6925 41.8979C21.8707 41.8432 23.0478 42.0281 24.1526 42.4413C25.2573 42.8545 26.2668 43.4875 27.1199 44.302C27.973 45.1164 28.6521 46.0955 29.1161 47.1799C29.5801 48.2643 29.8193 49.4315 29.8193 50.611C29.8193 51.7905 29.5801 52.9578 29.1161 54.0422C28.6521 55.1266 27.973 56.1056 27.1199 56.9201C26.2668 57.7345 25.2573 58.3675 24.1526 58.7807C23.0478 59.194 21.8707 59.3788 20.6925 59.3241C19.5143 59.3788 18.3372 59.194 17.2324 58.7807C16.1277 58.3675 15.1182 57.7345 14.2651 56.9201C13.412 56.1056 12.7329 55.1266 12.2689 54.0422C11.8049 52.9578 11.5657 51.7905 11.5657 50.611C11.5657 49.4315 11.8049 48.2643 12.2689 47.1799C12.7329 46.0955 13.412 45.1164 14.2651 44.302C15.1182 43.4875 16.1277 42.8545 17.2324 42.4413C18.3372 42.0281 19.5143 41.8432 20.6925 41.8979ZM53.25 67.1954H8.67375V66.0704H53.25V67.1954ZM64.125 58.6041C63.1308 59.6745 62.2276 60.826 61.425 62.0466C61.1499 62.4818 60.8849 62.9231 60.63 63.3704C60.2622 64.2224 59.6535 64.9484 58.8788 65.4591C58.203 65.802 57.4716 66.0217 56.7188 66.1079C55.9538 66.2159 55.1775 66.2159 54.4125 66.1079V63.8579C54.5138 63.8579 54.6113 63.8804 54.7125 63.8804C55.2044 63.8751 55.6955 63.8375 56.1825 63.7679C57.0809 63.6602 57.9525 63.3909 58.755 62.9729C59.7236 62.3645 60.4897 61.4822 60.9562 60.4379C61.1712 60.0629 61.4213 59.6379 61.7063 59.1629C62.4716 58.011 63.3267 56.9213 64.2638 55.9041C64.3613 55.8116 64.4625 55.7204 64.5675 55.6304V58.1841C64.4175 58.3266 64.2563 58.4579 64.125 58.6041ZM81.5213 34.9791C81.5213 35.6206 81.2664 36.2359 80.8128 36.6895C80.3592 37.1431 79.744 37.3979 79.1025 37.3979H68.0438C67.4023 37.3979 66.787 37.1431 66.3334 36.6895C65.8798 36.2359 65.625 35.6206 65.625 34.9791V22.2291C65.625 21.5876 65.8798 20.9724 66.3334 20.5188C66.787 20.0652 67.4023 19.8104 68.0438 19.8104H79.095C79.7365 19.8104 80.3517 20.0652 80.8053 20.5188C81.2589 20.9724 81.5138 21.5876 81.5138 22.2291L81.5213 34.9791ZM14.9288 50.1216C15.8266 50.5423 16.776 50.8424 17.7525 51.0141C17.7978 51.3203 17.8901 51.6175 18.0263 51.8954C17.2484 52.555 16.5579 53.3111 15.9712 54.1454C15.8142 54.3962 15.7099 54.6765 15.6649 54.969C15.6199 55.2616 15.6351 55.5602 15.7095 55.8467C15.784 56.1331 15.9161 56.4014 16.0978 56.635C16.2795 56.8686 16.5069 57.0627 16.7663 57.2054C17.3048 57.4926 17.933 57.5621 18.5213 57.3995C19.1096 57.2369 19.6129 56.8547 19.9275 56.3316C20.4043 55.3954 20.756 54.4007 20.9738 53.3729C21.2449 53.3366 21.5099 53.2635 21.7613 53.1554C22.4419 53.9344 23.2268 54.6158 24.0938 55.1804C24.6323 55.4676 25.2605 55.5371 25.8488 55.3745C26.437 55.2119 26.9404 54.8297 27.255 54.3066C27.4128 54.0559 27.5178 53.7755 27.5634 53.4828C27.609 53.19 27.5943 52.891 27.5202 52.6041C27.4461 52.3172 27.3142 52.0485 27.1325 51.8144C26.9509 51.5803 26.7233 51.3859 26.4638 51.2429C25.5511 50.8143 24.5849 50.5103 23.5913 50.3391C23.5822 50.0304 23.5187 49.7258 23.4038 49.4391C24.1684 48.7772 24.8463 48.0212 25.4213 47.1891C25.5791 46.9384 25.684 46.658 25.7297 46.3652C25.7753 46.0725 25.7606 45.7735 25.6865 45.4866C25.6124 45.1997 25.4805 44.931 25.2988 44.6969C25.1171 44.4628 24.8895 44.2684 24.63 44.1254C24.0915 43.8382 23.4632 43.7687 22.875 43.9313C22.2867 44.0939 21.7833 44.4761 21.4688 44.9991C21.0315 45.8418 20.7026 46.7364 20.49 47.6616C20.1225 47.6933 19.764 47.7925 19.4325 47.9541C18.799 47.2666 18.0822 46.6606 17.2987 46.1504C16.76 45.8641 16.1321 45.7951 15.5441 45.9576C14.9561 46.1202 14.4527 46.5018 14.1375 47.0241C13.974 47.2761 13.8646 47.5592 13.8159 47.8556C13.7673 48.1519 13.7805 48.4552 13.8549 48.7462C13.9292 49.0371 14.063 49.3096 14.2478 49.5463C14.4326 49.783 14.6645 49.9789 14.9288 50.1216ZM19.2225 49.7466C19.4523 49.3675 19.8185 49.0906 20.2459 48.9727C20.6733 48.8549 21.1296 48.9051 21.5213 49.1129C21.7096 49.2172 21.8748 49.3587 22.0067 49.5288C22.1386 49.699 22.2344 49.8942 22.2885 50.1026C22.3425 50.311 22.3535 50.5282 22.3209 50.741C22.2883 50.9538 22.2127 51.1577 22.0988 51.3404C21.8709 51.7217 21.5047 52.0004 21.0765 52.1184C20.6483 52.2365 20.1911 52.1848 19.8 51.9741C19.6127 51.8698 19.4485 51.7286 19.3172 51.5591C19.186 51.3895 19.0905 51.1951 19.0366 50.9876C18.9826 50.7801 18.9712 50.5638 19.0032 50.3518C19.0352 50.1398 19.1098 49.9365 19.2225 49.7541V49.7466ZM36.4388 62.6991H48.9188C49.4409 62.6991 49.9417 62.4917 50.3109 62.1225C50.6801 61.7533 50.8875 61.2525 50.8875 60.7304V58.4804C50.8875 58.222 50.8366 57.9662 50.7376 57.7275C50.6386 57.4889 50.4935 57.2721 50.3106 57.0896C50.1278 56.9071 49.9107 56.7624 49.6719 56.6639C49.433 56.5654 49.1771 56.5149 48.9188 56.5154H36.4388C36.1804 56.5149 35.9245 56.5654 35.6856 56.6639C35.4468 56.7624 35.2297 56.9071 35.0469 57.0896C34.864 57.2721 34.7189 57.4889 34.6199 57.7275C34.521 57.9662 34.47 58.222 34.47 58.4804V60.7304C34.47 61.2525 34.6774 61.7533 35.0466 62.1225C35.4158 62.4917 35.9166 62.6991 36.4388 62.6991ZM37.6088 57.6366H47.7338C48.2559 57.6366 48.7567 57.8441 49.1259 58.2133C49.4951 58.5825 49.7025 59.0832 49.7025 59.6054C49.7025 60.1275 49.4951 60.6283 49.1259 60.9975C48.7567 61.3667 48.2559 61.5741 47.7338 61.5741H37.6088C37.0866 61.5741 36.5858 61.3667 36.2166 60.9975C35.8474 60.6283 35.64 60.1275 35.64 59.6054C35.64 59.0832 35.8474 58.5825 36.2166 58.2133C36.5858 57.8441 37.0866 57.6366 37.6088 57.6366ZM46.1963 53.7029H50.8875V54.8279H46.1963V53.7029ZM34.47 53.7029H44.4375V54.8279H34.47V53.7029ZM34.47 50.8904H50.8875V52.0154H34.47V50.8904ZM34.47 48.0816H50.8875V49.2066H34.47V48.0816ZM34.47 45.2691H50.8875V46.3941H34.47V45.2691ZM34.47 42.4604H50.8875V43.5854H34.47V42.4604Z" fill="#DEC331"/>
</svg>
