<svg width="90" height="90" viewBox="0 0 90 90" fill="none" xmlns="http://www.w3.org/2000/svg">
<path d="M67.5 11.25H25.6275C24.7429 8.74797 23.0022 6.63919 20.7132 5.29641C18.4242 3.95362 15.7341 3.46327 13.1185 3.91204C10.5029 4.36081 8.13014 5.71979 6.41961 7.7488C4.70907 9.77781 3.7709 12.3462 3.7709 15C3.7709 17.6538 4.70907 20.2222 6.41961 22.2512C8.13014 24.2803 10.5029 25.6392 13.1185 26.088C15.7341 26.5368 18.4242 26.0464 20.7132 24.7036C23.0022 23.3609 24.7429 21.2521 25.6275 18.75H67.5C70.4837 18.75 73.3452 19.9353 75.455 22.0451C77.5647 24.1549 78.75 27.0163 78.75 30C78.75 32.9837 77.5647 35.8452 75.455 37.955C73.3452 40.0648 70.4837 41.25 67.5 41.25H55.62C54.831 39.0795 53.3931 37.2043 51.5015 35.8793C49.6099 34.5542 47.3564 33.8434 45.0469 33.8434C42.7374 33.8434 40.4838 34.5542 38.5922 35.8793C36.7007 37.2043 35.2628 39.0795 34.4737 41.25H22.5C17.5272 41.25 12.7581 43.2255 9.24175 46.7418C5.72544 50.2581 3.75 55.0272 3.75 60C3.75 64.9728 5.72544 69.742 9.24175 73.2583C12.7581 76.7746 17.5272 78.75 22.5 78.75H45V90L60 75L45 60V71.25H22.5C19.5163 71.25 16.6548 70.0648 14.545 67.955C12.4353 65.8452 11.25 62.9837 11.25 60C11.25 57.0163 12.4353 54.1549 14.545 52.0451C16.6548 49.9353 19.5163 48.75 22.5 48.75H34.5112C35.3075 50.908 36.7462 52.77 38.6333 54.0852C40.5205 55.4004 42.7654 56.1055 45.0656 56.1055C47.3658 56.1055 49.6108 55.4004 51.4979 54.0852C53.3851 52.77 54.8237 50.908 55.62 48.75H67.5C72.4728 48.75 77.2419 46.7746 80.7583 43.2583C84.2746 39.742 86.25 34.9728 86.25 30C86.25 25.0272 84.2746 20.2581 80.7583 16.7418C77.2419 13.2255 72.4728 11.25 67.5 11.25ZM15 18.75C14.2583 18.75 13.5333 18.5301 12.9166 18.118C12.2999 17.706 11.8193 17.1203 11.5355 16.4351C11.2516 15.7499 11.1774 14.9959 11.3221 14.2684C11.4667 13.541 11.8239 12.8728 12.3483 12.3484C12.8728 11.8239 13.541 11.4668 14.2684 11.3221C14.9958 11.1774 15.7498 11.2516 16.4351 11.5355C17.1203 11.8193 17.706 12.3 18.118 12.9166C18.5301 13.5333 18.75 14.2583 18.75 15C18.75 15.9946 18.3549 16.9484 17.6516 17.6517C16.9484 18.3549 15.9946 18.75 15 18.75ZM45 48.75C44.2583 48.75 43.5333 48.5301 42.9166 48.118C42.2999 47.706 41.8193 47.1203 41.5354 46.4351C41.2516 45.7499 41.1774 44.9959 41.3221 44.2684C41.4668 43.541 41.8239 42.8728 42.3484 42.3484C42.8728 41.8239 43.541 41.4668 44.2684 41.3221C44.9958 41.1774 45.7498 41.2516 46.4351 41.5355C47.1203 41.8193 47.706 42.2999 48.118 42.9166C48.5301 43.5333 48.75 44.2583 48.75 45C48.75 45.9946 48.3549 46.9484 47.6516 47.6517C46.9484 48.3549 45.9946 48.75 45 48.75Z" fill="#508BC8"/>
<path d="M75 63.75C72.775 63.75 70.5999 64.4098 68.7498 65.646C66.8998 66.8821 65.4578 68.6391 64.6064 70.6948C63.7549 72.7505 63.5321 75.0125 63.9662 77.1948C64.4003 79.3771 65.4717 81.3816 67.0451 82.955C68.6184 84.5283 70.623 85.5998 72.8052 86.0338C74.9875 86.4679 77.2495 86.2451 79.3052 85.3936C81.3609 84.5422 83.1179 83.1002 84.354 81.2502C85.5902 79.4001 86.25 77.225 86.25 75C86.25 72.0163 85.0647 69.1548 82.955 67.045C80.8452 64.9353 77.9837 63.75 75 63.75ZM75 78.75C74.2583 78.75 73.5333 78.5301 72.9166 78.118C72.2999 77.706 71.8193 77.1203 71.5355 76.4351C71.2516 75.7498 71.1774 74.9958 71.3221 74.2684C71.4668 73.541 71.8239 72.8728 72.3484 72.3483C72.8728 71.8239 73.541 71.4667 74.2684 71.3221C74.9958 71.1774 75.7498 71.2516 76.4351 71.5355C77.1203 71.8193 77.706 72.2999 78.118 72.9166C78.5301 73.5333 78.75 74.2583 78.75 75C78.75 75.9946 78.3549 76.9484 77.6517 77.6517C76.9484 78.3549 75.9946 78.75 75 78.75Z" fill="#508BC8"/>
</svg>
