<svg width="90" height="90" viewBox="0 0 90 90" fill="none" xmlns="http://www.w3.org/2000/svg">
<path d="M42.4327 3.69141L39.7573 9.7998C38.3724 9.88419 36.9945 10.0586 35.6322 10.3219L31.5397 5.03719L27.1287 6.53695L27.1067 13.2606C25.2381 14.2211 23.4474 15.3823 21.7559 16.7375L15.5218 13.9307L12.3302 17.3255L15.5216 23.3789C14.5034 24.8305 13.6086 26.3648 12.8466 27.9657L6.00203 28.1524L4.6123 32.5962L10.1385 36.6669C9.87397 38.3157 9.74477 39.9818 9.73738 41.6493L3.60156 44.7583L4.24422 49.3726L10.9789 50.6909C11.3817 52.1005 11.881 53.4807 12.4731 54.8218L8.03477 60.3316L10.5121 64.2755L17.4115 62.6606C17.848 63.1743 18.3005 63.6744 18.7681 64.16C19.7448 65.1704 20.7852 66.1172 21.883 66.9944L20.5427 73.9049L24.5747 76.234L29.8425 71.6472C31.3499 72.2531 32.9018 72.7416 34.4844 73.1083L36.2039 79.8594L40.8454 80.2385L43.6359 73.8717C45.5642 73.7557 47.4862 73.4674 49.3762 73.0037L53.8094 78.14L58.1324 76.4096L58.0059 73.8058L47.915 66.154C44.9773 66.8967 41.931 67.0955 38.939 66.758C33.3573 66.1287 27.9931 63.608 23.7835 59.2546C14.1616 49.3029 14.4367 33.4728 24.3879 23.8512C29.2078 19.1907 35.4076 16.8265 41.6144 16.7595C48.2221 16.6881 54.8356 19.2197 59.7969 24.351C67.8714 32.7027 68.972 45.2663 63.2355 54.7778L68.8553 59.0405C69.5541 57.9449 70.1852 56.8075 70.7449 55.6348L77.5397 55.4479L78.9295 51.0042L73.4421 46.9612C73.707 45.2988 73.841 43.6182 73.8429 41.9349L79.9404 38.8368L79.2979 34.2225L72.569 32.9041C72.0027 30.955 71.2523 29.0641 70.3278 27.2572L74.3373 21.7035L71.6567 17.8966L65.0543 19.8137C64.9714 19.7258 64.8909 19.6367 64.8068 19.55C63.7675 18.4748 62.6553 17.4726 61.4781 16.5505L62.7416 10.0246L58.709 7.6957L53.6992 12.0575C52.0775 11.4049 50.4118 10.8969 48.7223 10.5195L47.08 4.07039L42.4327 3.69141ZM32.21 30.6738C30.3917 30.6946 28.5894 31.1411 26.9365 31.9535L34.8854 37.9853C37.2893 39.8092 37.9712 43.2754 36.1264 45.7086C34.281 48.1431 30.7376 48.5091 28.2988 46.6592L20.3556 40.6331C19.5423 44.9912 21.0825 49.609 24.8546 52.4709C28.2375 55.0368 32.5791 55.5172 36.319 54.1738L37.1593 53.8715L37.8677 54.4099L61.6315 72.4387L62.3399 72.977L62.2795 73.867C61.9917 77.8308 63.6136 81.8843 66.9981 84.452C70.7704 87.3137 75.6369 87.551 79.6157 85.5946L71.6729 79.5688C69.2341 77.7185 68.635 74.2064 70.4811 71.7739C72.3268 69.3411 75.8489 69.066 78.2536 70.8894L86.1968 76.9157C87.0082 72.5592 85.4743 67.9391 81.7033 65.0779C78.3084 62.5013 74.0011 61.9908 70.2831 63.3143L69.4482 63.611L68.7398 63.0726L44.9759 45.0441L44.2675 44.5057L44.328 43.6215C44.6004 39.6863 42.9481 35.6773 39.5543 33.1019C37.3493 31.4292 34.7692 30.6448 32.2101 30.674L32.21 30.6738ZM39.8675 46.5381L68.6737 68.3954L66.6905 71.0156L37.8789 49.1528L39.8675 46.5381Z" fill="#508BC8"/>
</svg>
