<svg width="239" height="65" viewBox="0 0 239 65" fill="none" xmlns="http://www.w3.org/2000/svg">
<path d="M0.529927 55.3012L10.9043 36.8074C14.1886 30.955 21.8327 28.7666 27.5612 32.0818C29.79 33.3654 31.8576 35.3466 33.4998 37.7085L44.8247 57.8758C46.4038 60.6874 49.0021 62.7375 52.0481 63.5751C53.5564 63.9899 55.1291 64.0944 56.6766 63.8829C58.224 63.6713 59.7159 63.1477 61.067 62.342C62.4181 61.5364 63.6019 60.4644 64.5509 59.1873C65.5 57.9102 66.1956 56.453 66.5981 54.8988C67.0006 53.3447 67.1021 51.7241 66.8967 50.1296C66.6914 48.5351 66.1833 46.9978 65.4014 45.6056L43.7836 7.11433C42.7397 5.25502 41.2395 3.71132 39.4337 2.63813C37.6279 1.56494 35.5799 1 33.4952 1C31.4106 1 29.3626 1.56494 27.5568 2.63813C25.751 3.71132 24.2508 5.25502 23.2069 7.11433L1.59814 45.6131C0.0190586 48.4257 -0.41102 51.7696 0.402521 54.9089C1.21606 58.0483 3.20658 60.7261 5.93619 62.3532C8.66579 63.9804 11.9109 64.4235 14.9576 63.5852C18.0043 62.7469 20.603 60.6959 22.1821 57.8832L33.4998 37.7085" fill="url(#paint0_linear_383_5153)"/>
<path d="M72.8936 30.5684V48H69.8223V30.5684H72.8936ZM72.8936 24.2598V27.165H69.8223V24.2598H72.8936ZM78.2227 48V30.5684H80.2979L80.8457 32.793C82.373 31.3099 84.2103 30.5684 86.3574 30.5684V33.125C84.2767 33.125 82.5889 33.861 81.2939 35.333V48H78.2227ZM97.7461 47.1699V44.3477C100.236 45.2331 102.926 45.6758 105.814 45.6758C109.898 45.6758 111.94 44.1816 111.94 41.1934C111.94 38.6478 110.435 37.375 107.425 37.375H104.37C99.4007 37.375 96.916 35.2168 96.916 30.9004C96.916 26.3626 100.098 24.0938 106.462 24.0938C109.229 24.0938 111.802 24.4258 114.182 25.0898V27.9121C111.802 27.0267 109.229 26.584 106.462 26.584C102.146 26.584 99.9873 28.0228 99.9873 30.9004C99.9873 33.446 101.448 34.7188 104.37 34.7188H107.425C112.483 34.7188 115.012 36.877 115.012 41.1934C115.012 45.8418 111.946 48.166 105.814 48.166C102.926 48.166 100.236 47.834 97.7461 47.1699ZM134.187 30.5684V48H132.078L131.547 45.7754C129.433 47.2585 127.308 48 125.172 48C121.165 48 119.162 45.8363 119.162 41.5088V30.5684H122.233V41.5586C122.233 44.1484 123.517 45.4434 126.085 45.4434C127.845 45.4434 129.521 44.7074 131.115 43.2354V30.5684H134.187ZM142.255 44.4473C143.461 45.0449 144.806 45.3438 146.289 45.3438C149.908 45.3438 151.718 43.1689 151.718 38.8193C151.718 35.0231 149.919 33.125 146.322 33.125C144.773 33.125 143.417 33.2578 142.255 33.5234V44.4473ZM139.184 31.2822C141.497 30.8063 143.887 30.5684 146.355 30.5684C151.945 30.5684 154.739 33.3298 154.739 38.8525C154.739 44.9508 151.928 48 146.306 48C144.911 48 143.561 47.7233 142.255 47.1699V54.3086H139.184V31.2822ZM161.978 44.4473C163.184 45.0449 164.529 45.3438 166.012 45.3438C169.631 45.3438 171.44 43.1689 171.44 38.8193C171.44 35.0231 169.642 33.125 166.045 33.125C164.495 33.125 163.14 33.2578 161.978 33.5234V44.4473ZM158.906 31.2822C161.219 30.8063 163.61 30.5684 166.078 30.5684C171.667 30.5684 174.462 33.3298 174.462 38.8525C174.462 44.9508 171.651 48 166.028 48C164.634 48 163.284 47.7233 161.978 47.1699V54.3086H158.906V31.2822Z" fill="#398FF3"/>
<path d="M206.898 22.2842C207.842 23.0915 208.548 24.1148 208.947 25.2549C209.347 26.3949 209.426 27.6128 209.177 28.7901C208.969 30.316 208.268 31.7448 207.168 32.8832C206.068 34.0216 204.624 34.8146 203.03 35.1548C201.65 35.5227 200.188 35.5194 198.81 35.1453C197.432 34.7711 196.193 34.0411 195.233 33.038C196.808 33.6128 198.533 33.7209 200.176 33.3476C201.819 32.9743 203.301 32.1375 204.424 30.9493C205.711 29.9042 206.635 28.5196 207.076 26.9746C207.517 25.4297 207.455 23.7957 206.898 22.2842ZM194.978 31.8666C195.623 30.3736 195.758 28.7283 195.363 27.16C194.967 25.5916 194.062 24.1783 192.774 23.1169C191.668 21.9009 190.193 21.0318 188.548 20.6257C186.903 20.2197 185.165 20.2961 183.567 20.8448C184.476 19.935 185.618 19.26 186.883 18.8844C188.149 18.5088 189.496 18.4452 190.795 18.6997C192.392 18.9834 193.865 19.7034 195.03 20.7701C196.195 21.8367 197.001 23.2026 197.347 24.6975C197.662 25.9829 197.608 27.3238 197.192 28.5834C196.776 29.843 196.012 30.9759 194.978 31.8666ZM205.294 44.2292C204.417 45.137 203.3 45.8098 202.057 46.1792C200.813 46.5485 199.488 46.6012 198.217 46.3319C196.651 46.0957 195.196 45.4258 194.037 44.4078C192.878 43.3898 192.068 42.0698 191.709 40.6164C191.316 39.3157 191.313 37.9381 191.699 36.6356C192.085 35.3332 192.846 34.1565 193.898 33.2355C193.308 34.7246 193.208 36.3466 193.612 37.8899C194.016 39.4332 194.905 40.826 196.162 41.8865C197.262 43.091 198.719 43.958 200.347 44.3756C201.974 44.7931 203.697 44.7421 205.294 44.2292ZM182.188 42.9449C181.089 42.0091 180.298 40.797 179.907 39.4517C179.517 38.1064 179.543 36.684 179.984 35.3524C180.375 33.8598 181.246 32.5171 182.478 31.507C183.709 30.4969 185.242 29.8685 186.866 29.7074C188.122 29.5059 189.411 29.6088 190.612 30.0064C191.814 30.4039 192.888 31.083 193.733 31.9795C192.089 31.381 190.285 31.2895 188.582 31.7182C186.879 32.1468 185.365 33.0735 184.257 34.3645C183.023 35.425 182.163 36.8156 181.793 38.3494C181.423 39.8833 181.561 41.4869 182.188 42.9449ZM194.843 32.5299C196.453 32.0819 197.861 31.1488 198.853 29.874C199.844 28.5992 200.364 27.0532 200.331 25.4737C200.594 23.7686 200.274 22.029 199.417 20.5067C198.559 18.9843 197.21 17.7583 195.563 17.0062C196.872 16.9546 198.174 17.2272 199.337 17.7968C200.499 18.3663 201.483 19.2129 202.19 20.252C203.145 21.4454 203.69 22.884 203.755 24.3765C203.819 25.869 203.399 27.3445 202.55 28.6066C201.801 29.8876 200.676 30.9386 199.309 31.6342C197.942 32.3299 196.392 32.6408 194.843 32.5299ZM194.138 32.5299C192.51 32.9931 191.087 33.9469 190.091 35.2446C189.094 36.5424 188.577 38.1123 188.62 39.7132C188.389 41.3771 188.728 43.0673 189.588 44.5371C190.448 46.007 191.785 47.1797 193.404 47.8843C191.904 48.3782 189.055 47.2351 187.406 45.5134C186.294 44.3619 185.575 42.923 185.342 41.3828C185.108 39.8426 185.371 38.2718 186.096 36.8736C186.821 35.4754 187.975 34.314 189.408 33.5397C190.842 32.7653 192.49 32.4136 194.138 32.5299ZM210.992 33.419C211.055 34.6803 210.762 35.9349 210.143 37.0552C209.524 38.1756 208.601 39.1218 207.468 39.7978C206.194 40.6809 204.665 41.1805 203.084 41.2309C201.502 41.2813 199.941 40.8801 198.606 40.0801C197.346 39.4135 196.305 38.4323 195.598 37.2445C194.892 36.0568 194.547 34.7086 194.603 33.3484C195.278 34.8336 196.427 36.084 197.892 36.9262C199.356 37.7684 201.063 38.1604 202.775 38.0479C204.485 38.173 206.195 37.7947 207.667 36.9655C209.139 36.1362 210.301 34.8969 210.992 33.419ZM178.005 31.4432C177.957 30.1657 178.28 28.9 178.937 27.7815C179.595 26.663 180.563 25.7336 181.738 25.0926C183.019 24.2694 184.53 23.822 186.08 23.8069C187.631 23.7918 189.151 24.2098 190.45 25.0079C191.68 25.6893 192.693 26.67 193.382 27.8471C194.07 29.0242 194.409 30.3542 194.363 31.6973C193.693 30.2367 192.567 29.0024 191.134 28.1581C189.701 27.3138 188.03 26.8993 186.341 26.9696C184.636 26.8462 182.93 27.2064 181.444 28.0037C179.958 28.8011 178.76 29.9991 178.005 31.4432Z" fill="url(#paint1_linear_383_5153)"/>
<path d="M213.49 48V30.5684H215.565L216.113 32.793C217.641 31.3099 219.478 30.5684 221.625 30.5684V33.125C219.544 33.125 217.856 33.861 216.562 35.333V48H213.49ZM224.713 27.7461H226.639L227.303 30.5684H232.018V33.0586H227.784V43.0693C227.784 44.6963 228.487 45.5098 229.893 45.5098H232.018V48H229.096C226.174 48 224.713 46.4339 224.713 43.3018V27.7461Z" fill="#398FF3"/>
<defs>
<linearGradient id="paint0_linear_383_5153" x1="27" y1="3.5" x2="55.0281" y2="62.41" gradientUnits="userSpaceOnUse">
<stop stop-color="#FB92FC"/>
<stop offset="0.0423383" stop-color="#E682FE"/>
<stop offset="0.0800935" stop-color="#CF8FFF"/>
<stop offset="0.109826" stop-color="#BE8AFF"/>
<stop offset="0.240721" stop-color="#4EB3FF"/>
<stop offset="0.393037" stop-color="#0369ED" stop-opacity="0.8"/>
<stop offset="0.561221" stop-color="#019DED"/>
<stop offset="0.685967" stop-color="#01BCFF"/>
<stop offset="0.797537" stop-color="#27EAFC"/>
<stop offset="0.891302" stop-color="#16EEF9"/>
<stop offset="0.943769" stop-color="#57F6EB"/>
<stop offset="1" stop-color="#B8F4EE"/>
</linearGradient>
<linearGradient id="paint1_linear_383_5153" x1="187.5" y1="20" x2="199.368" y2="47.0048" gradientUnits="userSpaceOnUse">
<stop stop-color="#FB92FC"/>
<stop offset="0.04" stop-color="#E682FE"/>
<stop offset="0.075" stop-color="#CF8FFF"/>
<stop offset="0.1" stop-color="#BE8AFF"/>
<stop offset="0.2" stop-color="#4EB3FF"/>
<stop offset="0.349605" stop-color="#0369ED" stop-opacity="0.8"/>
<stop offset="0.528939" stop-color="#019DED"/>
<stop offset="0.699119" stop-color="#01BCFF"/>
<stop offset="0.837954" stop-color="#27EAFC"/>
<stop offset="0.897562" stop-color="#16EEF9"/>
<stop offset="0.945266" stop-color="#57F6EB"/>
<stop offset="1" stop-color="#B8F4EE"/>
</linearGradient>
</defs>
</svg>
