<svg width="90" height="90" viewBox="0 0 90 90" fill="none" xmlns="http://www.w3.org/2000/svg">
<path d="M68.6556 31.5158C67.7381 31.5158 66.9556 31.197 66.3081 30.5595C65.6606 29.922 65.3369 29.1308 65.3369 28.1858C65.3369 27.7433 65.4219 27.3233 65.5919 26.9258C65.7644 26.5283 65.9994 26.1808 66.2969 25.8833C67.0144 25.1683 68.5606 24.402 70.9356 23.5845L74.4981 22.3583C74.0931 23.6508 73.6719 24.8508 73.2344 25.9583C72.9069 26.8758 72.5344 27.7833 72.1169 28.6808C71.6994 29.5808 71.3244 30.1983 70.9919 30.5333C70.6794 30.8458 70.3206 31.0883 69.9156 31.2608C69.5106 31.4333 69.0906 31.5183 68.6556 31.5158ZM19.7444 73.197C18.0769 73.197 16.6531 72.6045 15.4731 71.4195C14.2931 70.232 13.7031 68.8058 13.7031 67.1408V22.4258C13.7031 20.7608 14.2969 19.3345 15.4844 18.147C16.6719 16.9595 18.0981 16.3658 19.7631 16.3658H37.9506C39.6181 16.3658 41.0419 16.9595 42.2219 18.147C43.4019 19.3345 43.9919 20.7595 43.9919 22.422V51.1358C44.6019 50.7083 45.2919 50.3358 46.0619 50.0183C46.8319 49.7008 47.7281 49.542 48.7506 49.542C51.1131 49.542 53.1219 50.3695 54.7769 52.0245C56.4319 53.677 57.2594 55.6858 57.2594 58.0508V64.6845C57.2594 66.0345 57.7156 67.1645 58.6281 68.0745C59.5406 68.987 60.6719 69.4433 62.0219 69.4433C63.3719 69.4433 64.5019 68.987 65.4119 68.0745C66.3219 67.162 66.7781 66.032 66.7806 64.6845V46.6545H63.4619V42.3945C60.5194 41.102 58.1256 39.1883 56.2806 36.6533C54.4356 34.1183 53.5119 31.2983 53.5094 28.1933C53.5094 23.9683 54.9869 20.3883 57.9419 17.4533C60.8969 14.5183 64.4681 13.0508 68.6556 13.0508C72.8806 13.0508 76.4606 14.5183 79.3956 17.4533C82.3306 20.3883 83.7981 23.9683 83.7981 28.1933C83.7981 31.3008 82.8756 34.1208 81.0306 36.6533C79.1856 39.1858 76.7906 41.0983 73.8456 42.3908V46.6545H70.5306V64.6845C70.5306 67.0495 69.7044 69.0595 68.0519 70.7145C66.3969 72.367 64.3894 73.1933 62.0294 73.1933C59.6694 73.1933 57.6594 72.367 55.9994 70.7145C54.3394 69.062 53.5094 67.052 53.5094 64.6845V58.047C53.5094 56.6995 53.0531 55.5695 52.1406 54.657C51.2281 53.747 50.0969 53.292 48.7469 53.292C47.3969 53.292 46.2669 53.7483 45.3569 54.6608C44.4469 55.5733 43.9919 56.7033 43.9919 58.0508V67.137C43.9919 68.802 43.3981 70.227 42.2106 71.412C41.0231 72.5995 39.5956 73.1933 37.9281 73.1933L19.7444 73.197ZM68.6631 39.5933C71.8306 39.5933 74.5206 38.4845 76.7331 36.267C78.9431 34.0495 80.0481 31.357 80.0481 28.1895C80.0481 25.022 78.9394 22.332 76.7219 20.1195C74.5044 17.907 71.8119 16.802 68.6444 16.8045C65.4769 16.807 62.7881 17.9158 60.5781 20.1308C58.3681 22.3458 57.2619 25.037 57.2594 28.2045C57.2569 31.372 58.3656 34.062 60.5856 36.2745C62.8056 38.487 65.4981 39.5933 68.6631 39.5933ZM24.0869 31.3733V26.0408L18.8144 20.7758H17.4531V24.7395L24.0869 31.3733ZM33.6044 31.3733L40.2419 24.7358V20.7758H38.8769L33.6044 26.0408V31.3733ZM24.0869 47.9595V42.627L17.4494 35.9933V41.322L24.0869 47.9595ZM33.6081 47.9595L40.2419 41.322V35.9933L33.6044 42.6308L33.6081 47.9595ZM24.0869 64.5458V59.2133L17.4494 52.5758V57.9045L24.0869 64.5458ZM33.6081 64.5458L40.2419 57.9083V52.5833L33.6006 59.2133L33.6081 64.5458Z" fill="#DEC331"/>
</svg>
