<svg width="90" height="90" viewBox="0 0 90 90" fill="none" xmlns="http://www.w3.org/2000/svg">
<path d="M71.25 63.75C75.7875 63.75 82.5 60.75 82.5 52.5C82.5 44.25 75.7875 41.25 71.25 41.25H63.75V33.75H71.25C79.5 33.75 82.5 27.0375 82.5 22.5C82.5 14.25 75.7875 11.25 71.25 11.25H63.75V7.5H60V11.25H30V7.5H26.25V11.25H7.5V18.75H26.25V26.25H18.75C14.2125 26.25 7.5 29.25 7.5 37.5C7.5 45.75 14.2125 48.75 18.75 48.75H26.25V56.25H18.75C14.2125 56.25 7.5 59.25 7.5 67.5C7.5 75.75 14.2125 78.75 18.75 78.75H26.25V82.5H30V78.75H60V82.5H63.75V78.75H82.5V71.25H63.75V63.75H71.25ZM71.25 48.75C72.9375 48.75 75 49.4625 75 52.5C75 55.5375 72.9375 56.25 71.25 56.25H63.75V48.75H71.25ZM60 41.25H30V33.75H60V41.25ZM71.25 18.75C72.9375 18.75 75 19.5 75 22.5C75 24.1875 74.2875 26.25 71.25 26.25H63.75V18.75H71.25ZM30 18.75H60V26.25H30V18.75ZM18.75 41.25C17.0625 41.25 15 40.5375 15 37.5C15 34.4625 17.0625 33.75 18.75 33.75H26.25V41.25H18.75ZM30 48.75H60V56.25H30V48.75ZM18.75 71.25C17.0625 71.25 15 70.5375 15 67.5C15 64.4625 17.0625 63.75 18.75 63.75H26.25V71.25H18.75ZM60 71.25H30V63.75H60V71.25Z" fill="#DEC331"/>
</svg>
